<svg xmlns="http://www.w3.org/2000/svg" viewBox="0 0 195.2 195.21"><defs><style>.cls-1{fill:#fff;}.cls-2{fill:#041235;}</style></defs><g id="Capa_2" data-name="Capa 2"><g id="ELEMENTOS"><path class="cls-1" d="M146.87,103.59v2.87a1.26,1.26,0,0,1-1.27,1.26h-19v0a1.25,1.25,0,0,1-1.26-1.26v-2.85a1.26,1.26,0,0,1,1.26-1.27h19A1.27,1.27,0,0,1,146.87,103.59Z"/><path class="cls-1" d="M182.68,14.21v94.12h-5.05v-90a8.89,8.89,0,0,0-8.88-8.88H26.49a8.88,8.88,0,0,0-8.88,8.88v90H12.55V14.21a9.16,9.16,0,0,1,9.14-9.14H173.55A9.15,9.15,0,0,1,182.68,14.21Z"/><path class="cls-1" d="M182.64,142v3.4a1.26,1.26,0,0,1-1.26,1.27h-48v-5.86l48-.08A1.26,1.26,0,0,1,182.64,142Z"/><path class="cls-1" d="M172.49,151.72l0,12.67a3.91,3.91,0,0,1-3.8,3.81H133.34V151.72Z"/><rect class="cls-1" x="155.82" y="173.31" width="9.96" height="16.83"/><polygon class="cls-1" points="39.39 173.31 39.37 190.14 29.42 190.14 29.42 173.31 39.39 173.31"/><path class="cls-1" d="M70.41,151.72v16.51l-43.94,0a3.92,3.92,0,0,1-3.81-3.81V151.72Z"/><path class="cls-1" d="M70.43,140.83v5.86H13.82a1.27,1.27,0,0,1-1.27-1.21V142.1a1.27,1.27,0,0,1,1.27-1.27Z"/><path class="cls-1" d="M128.28,130.05v54.23l-52.8,0V130.05a10.15,10.15,0,0,1,10.13-10.13h32.54A10.15,10.15,0,0,1,128.28,130.05Z"/><path class="cls-1" d="M7.22,113.42H118.13v1.39H85.61a15.18,15.18,0,0,0-12.47,6.52H7.22a2.15,2.15,0,0,1-2.15-2.15v-3.61A2.16,2.16,0,0,1,7.22,113.42Z"/><path class="cls-1" d="M190.06,115.57l.06,3.61a2.15,2.15,0,0,1-2.15,2.15H130.61a15.18,15.18,0,0,0-12.48-6.52v-1.39h69.79A2.15,2.15,0,0,1,190.06,115.57Z"/><path class="cls-1" d="M123.31,53.4v0a2.54,2.54,0,0,0-2.46-2.61H101.33l-8.92-5.06a2.54,2.54,0,0,0-2.31,0l-10,4.65L70.19,40.21a2.5,2.5,0,0,0-2-.77,2.54,2.54,0,0,0-1.83.84l-7.13,8L55.61,35.58a2.61,2.61,0,0,0-.55-1,2.54,2.54,0,0,0-3.59-.18l-18.7,17.1-.15.14a2.54,2.54,0,0,0,3.57,3.61L51.8,40.91,55.71,54.1a2.5,2.5,0,0,0,.75,1.19A2.53,2.53,0,0,0,60,55.08l8.36-9.37,9.21,9.47a2.54,2.54,0,0,0,2.87.52L91,50.86l8.37,4.75a2.65,2.65,0,0,0,1.25.33h20.17A2.54,2.54,0,0,0,123.31,53.4Zm49.18-35.06v90.05H151.63a6.49,6.49,0,0,0,.33-2v-2.83l0,0a6.34,6.34,0,0,0-6.34-6.35h-19a6.34,6.34,0,0,0-6.34,6.35v2.79a6.49,6.49,0,0,0,.33,2h-8a2.54,2.54,0,0,0-2.54-2.54H93.64a2.54,2.54,0,0,0-2.54,2.54H43.37a2.54,2.54,0,0,0-2.54-2.54H28.17a2.54,2.54,0,0,0-2.54,2.54h-3v-90a3.9,3.9,0,0,1,3.81-3.8H168.69A3.89,3.89,0,0,1,172.49,18.34Z"/><path class="cls-2" d="M195.2,115.57v3.61A7.23,7.23,0,0,1,188,126.4H132.89a15.54,15.54,0,0,1,.47,3.65v5.65h48a6.34,6.34,0,0,1,6.32,6.26v3.38a6.34,6.34,0,0,1-6.34,6.34h-3.79v12.67a8.89,8.89,0,0,1-6.75,8.61v22.15H150.73v-21.8H133.34v11a6.34,6.34,0,0,1,6.34,6.34v4.57H64.06v-4.57a6.34,6.34,0,0,1,6.35-6.34v-11h-26v21.88H24.36V173a8.88,8.88,0,0,1-6.75-8.61V151.72H13.82a6.34,6.34,0,0,1-6.34-6.34V142a6.34,6.34,0,0,1,6.34-6.34H70.43v-5.57a14.91,14.91,0,0,1,.43-3.7H7.22A7.23,7.23,0,0,1,0,119.12v-3.55a7.22,7.22,0,0,1,7.22-7.22h.26V14.21A14.22,14.22,0,0,1,21.69,0H173.51a14.23,14.23,0,0,1,14.21,14.21v94.14H188A7.23,7.23,0,0,1,195.2,115.57Zm-5.08,3.61-.06-3.61a2.15,2.15,0,0,0-2.14-2.15H7.22a2.16,2.16,0,0,0-2.15,2.15v3.61a2.15,2.15,0,0,0,2.15,2.15H73.14a15.18,15.18,0,0,1,12.47-6.52h32.52a15.18,15.18,0,0,1,12.48,6.52H188A2.15,2.15,0,0,0,190.12,119.18Zm-7.44-10.85V14.21a9.15,9.15,0,0,0-9.13-9.14H21.69a9.16,9.16,0,0,0-9.14,9.14v94.14h5.06v-90a8.88,8.88,0,0,1,8.88-8.88H168.75a8.89,8.89,0,0,1,8.88,8.88v90Zm0,37V142a1.26,1.26,0,0,0-1.26-1.27l-48,.08v5.86h48A1.26,1.26,0,0,0,182.64,145.36Zm-10.11,19,0-12.67H133.34V168.2h35.39A3.91,3.91,0,0,0,172.53,164.39Zm0-56v-90a3.89,3.89,0,0,0-3.8-3.8H26.47a3.9,3.9,0,0,0-3.81,3.8v90h3a2.54,2.54,0,0,1,2.54-2.54H40.83a2.54,2.54,0,0,1,2.54,2.54H91.1a2.54,2.54,0,0,1,2.54-2.54H110a2.54,2.54,0,0,1,2.54,2.54h8a6.49,6.49,0,0,1-.33-2v-2.79a6.34,6.34,0,0,1,6.34-6.35h19a6.34,6.34,0,0,1,6.34,6.35l0,0v2.83a6.49,6.49,0,0,1-.33,2Zm-6.71,81.75V173.31h-10v16.83Zm-18.91-83.68v-2.87a1.27,1.27,0,0,0-1.27-1.27h-19a1.26,1.26,0,0,0-1.26,1.27v2.85a1.25,1.25,0,0,0,1.26,1.26v0h19A1.26,1.26,0,0,0,146.87,106.46ZM69.22,190.12h65.29a1.26,1.26,0,0,0-1.15-.76h-63A1.24,1.24,0,0,0,69.22,190.12Zm59.06-5.84V130.05a10.15,10.15,0,0,0-10.13-10.13H85.61a10.15,10.15,0,0,0-10.13,10.13V184.3ZM70.43,146.69v-5.86H13.82a1.27,1.27,0,0,0-1.27,1.27v3.38a1.27,1.27,0,0,0,1.27,1.21Zm0,21.54V151.72H22.66v12.67a3.92,3.92,0,0,0,3.81,3.81Zm-31,21.91,0-16.83h-10v16.83Z"/><path class="cls-2" d="M123.31,53.36v0a2.54,2.54,0,0,1-2.54,2.54H100.6a2.65,2.65,0,0,1-1.25-.33L91,50.86,80.48,55.7a2.54,2.54,0,0,1-2.87-.52L68.4,45.71,60,55.08a2.53,2.53,0,0,1-3.58.21,2.5,2.5,0,0,1-.75-1.19L51.8,40.91,36.19,55.26a2.54,2.54,0,0,1-3.57-3.61l.15-.14,18.7-17.1a2.54,2.54,0,0,1,3.59.18,2.61,2.61,0,0,1,.55,1l3.67,12.69,7.13-8a2.54,2.54,0,0,1,1.83-.84,2.5,2.5,0,0,1,2,.77l9.86,10.13,10-4.65a2.54,2.54,0,0,1,2.31,0l8.92,5.06h19.52A2.54,2.54,0,0,1,123.31,53.36Z"/></g></g></svg>