<svg xmlns="http://www.w3.org/2000/svg" viewBox="0 0 270.41 199.3"><defs><style>.cls-1{fill:#023373;}.cls-2{fill:#fff;}</style></defs><g id="Capa_2" data-name="Capa 2"><g id="ELEMENTOS"><path class="cls-1" d="M81.27,52.68a2,2,0,0,1,0,4H44.9a2,2,0,0,1,0-4Z"/><path class="cls-1" d="M87.31,77.9a2,2,0,1,1,0,4H44.9a2,2,0,0,1,0-4Z"/><path class="cls-1" d="M87.31,33.87a2,2,0,1,1,0,4H44.9a2,2,0,0,1,0-4Z"/><path class="cls-1" d="M81.27,96.72a2,2,0,0,1,0,4H44.9a2,2,0,0,1,0-4Z"/><path class="cls-1" d="M95.38,102.08a2,2,0,0,1,0,4H44.9a2,2,0,0,1,0-4Z"/><path class="cls-2" d="M81.27,100.75a2,2,0,0,0,0-4H44.9a2,2,0,0,0,0,4Zm0-44a2,2,0,0,0,0-4H44.9a2,2,0,0,0,0,4ZM44.9,102.08a2,2,0,0,0,0,4H95.38a2,2,0,0,0,0-4Zm0-44a2,2,0,0,0,0,4H95.38a2,2,0,0,0,0-4Zm-2-51.39h71.82a16.38,16.38,0,0,0-3.33,9.89v0h0V134.24h0v0a9.86,9.86,0,1,1-19.72,0V119a3.34,3.34,0,0,0-3.33-3.33H33V16.51A9.87,9.87,0,0,1,42.89,6.65Zm54.5,21.17a2,2,0,0,0-2-2H44.9a2,2,0,0,0,0,4H95.38A2,2,0,0,0,97.39,27.82Zm0,44a2,2,0,0,0-2-2H44.9a2,2,0,0,0,0,4H95.38A2,2,0,0,0,97.39,71.86Zm-4-27.92a2,2,0,0,0-2-2H44.9a2,2,0,1,0,0,4H91.34A2,2,0,0,0,93.35,43.94Zm0,44a2,2,0,0,0-2-2H44.9a2,2,0,0,0,0,4H91.34A2,2,0,0,0,93.35,88Zm-4-52.1a2,2,0,0,0-2-2H44.9a2,2,0,0,0,0,4H87.31A2,2,0,0,0,89.33,35.88Zm0,44a2,2,0,0,0-2-2H44.9a2,2,0,0,0,0,4H87.31A2,2,0,0,0,89.33,79.92Z"/><path class="cls-1" d="M91.34,41.93a2,2,0,0,1,0,4H44.9a2,2,0,1,1,0-4Z"/><path class="cls-1" d="M91.34,86a2,2,0,0,1,0,4H44.9a2,2,0,0,1,0-4Z"/><path class="cls-1" d="M95.38,58a2,2,0,0,1,0,4H44.9a2,2,0,0,1,0-4Z"/><path class="cls-1" d="M95.38,25.8a2,2,0,0,1,0,4H44.9a2,2,0,0,1,0-4Z"/><path class="cls-1" d="M95.38,69.84a2,2,0,0,1,0,4H44.9a2,2,0,0,1,0-4Z"/><path class="cls-2" d="M88.3,144.13H16.92a2.73,2.73,0,0,0-.41,0,9.88,9.88,0,0,1-9.86-9.89V122.32H85v12A16.42,16.42,0,0,0,88.3,144.13Z"/><path class="cls-2" d="M137.76,16.53v20H118v-20a9.87,9.87,0,0,1,19.73,0Z"/><path class="cls-1" d="M144.41,16.56V39.83a3.33,3.33,0,0,1-3.32,3.33H118v91.1a16.54,16.54,0,0,1-16.52,16.51h-85a3.71,3.71,0,0,1-.47,0A16.53,16.53,0,0,1,0,134.23V119a3.32,3.32,0,0,1,3.33-3.33h23V16.53A16.53,16.53,0,0,1,42.89,0h85a4,4,0,0,1,.5.05,16.51,16.51,0,0,1,16,16.49Zm-6.65,20v-20a9.87,9.87,0,0,0-19.73,0v20Zm-23-29.86H42.89A9.87,9.87,0,0,0,33,16.51v99.16H88.32A3.34,3.34,0,0,1,91.65,119v15.26a9.86,9.86,0,1,0,19.72,0v0h0V16.56h0v0A16.38,16.38,0,0,1,114.71,6.65ZM16.92,144.13H88.3A16.42,16.42,0,0,1,85,134.3v-12H6.65v11.89a9.88,9.88,0,0,0,9.86,9.89A2.73,2.73,0,0,1,16.92,144.13Z"/><path class="cls-1" d="M207.27,52.68a2,2,0,0,1,0,4H170.9a2,2,0,0,1,0-4Z"/><path class="cls-1" d="M213.31,77.9a2,2,0,1,1,0,4H170.9a2,2,0,0,1,0-4Z"/><path class="cls-1" d="M213.31,33.87a2,2,0,1,1,0,4H170.9a2,2,0,0,1,0-4Z"/><path class="cls-1" d="M207.27,96.72a2,2,0,0,1,0,4H170.9a2,2,0,0,1,0-4Z"/><path class="cls-1" d="M221.38,102.08a2,2,0,0,1,0,4H170.9a2,2,0,0,1,0-4Z"/><path class="cls-2" d="M207.27,100.75a2,2,0,0,0,0-4H170.9a2,2,0,0,0,0,4Zm0-44a2,2,0,0,0,0-4H170.9a2,2,0,0,0,0,4ZM170.9,102.08a2,2,0,0,0,0,4h50.48a2,2,0,0,0,0-4Zm0-44a2,2,0,0,0,0,4h50.48a2,2,0,0,0,0-4Zm-2-51.39h71.82a16.38,16.38,0,0,0-3.33,9.89v0h0V134.24h0v0a9.86,9.86,0,1,1-19.72,0V119a3.34,3.34,0,0,0-3.33-3.33H159V16.51A9.87,9.87,0,0,1,168.89,6.65Zm54.5,21.17a2,2,0,0,0-2-2H170.9a2,2,0,0,0,0,4h50.48A2,2,0,0,0,223.39,27.82Zm0,44a2,2,0,0,0-2-2H170.9a2,2,0,0,0,0,4h50.48A2,2,0,0,0,223.39,71.86Zm-4-27.92a2,2,0,0,0-2-2H170.9a2,2,0,0,0,0,4h46.44A2,2,0,0,0,219.35,43.94Zm0,44a2,2,0,0,0-2-2H170.9a2,2,0,0,0,0,4h46.44A2,2,0,0,0,219.35,88Zm-4-52.1a2,2,0,0,0-2-2H170.9a2,2,0,0,0,0,4h42.41A2,2,0,0,0,215.33,35.88Zm0,44a2,2,0,0,0-2-2H170.9a2,2,0,0,0,0,4h42.41A2,2,0,0,0,215.33,79.92Z"/><path class="cls-1" d="M217.34,41.93a2,2,0,0,1,0,4H170.9a2,2,0,0,1,0-4Z"/><path class="cls-1" d="M217.34,86a2,2,0,0,1,0,4H170.9a2,2,0,0,1,0-4Z"/><path class="cls-1" d="M221.38,58a2,2,0,0,1,0,4H170.9a2,2,0,0,1,0-4Z"/><path class="cls-1" d="M221.38,25.8a2,2,0,0,1,0,4H170.9a2,2,0,0,1,0-4Z"/><path class="cls-1" d="M221.38,69.84a2,2,0,0,1,0,4H170.9a2,2,0,0,1,0-4Z"/><path class="cls-2" d="M214.3,144.13H142.92a2.73,2.73,0,0,0-.41,0,9.88,9.88,0,0,1-9.86-9.89V122.32H211v12A16.42,16.42,0,0,0,214.3,144.13Z"/><path class="cls-2" d="M263.76,16.53v20H244v-20a9.87,9.87,0,0,1,19.73,0Z"/><path class="cls-1" d="M270.41,16.56V39.83a3.33,3.33,0,0,1-3.32,3.33H244v91.1a16.54,16.54,0,0,1-16.52,16.51h-85a3.71,3.71,0,0,1-.47,0,16.53,16.53,0,0,1-16-16.51V119a3.32,3.32,0,0,1,3.33-3.33h23V16.53A16.53,16.53,0,0,1,168.89,0h85a4,4,0,0,1,.5.05,16.51,16.51,0,0,1,16,16.49Zm-6.65,20v-20a9.87,9.87,0,0,0-19.73,0v20Zm-23-29.86H168.89A9.87,9.87,0,0,0,159,16.51v99.16h55.29a3.34,3.34,0,0,1,3.33,3.33v15.26a9.86,9.86,0,1,0,19.72,0v0h0V16.56h0v0A16.38,16.38,0,0,1,240.71,6.65ZM142.92,144.13H214.3a16.42,16.42,0,0,1-3.3-9.83v-12H132.65v11.89a9.88,9.88,0,0,0,9.86,9.89A2.73,2.73,0,0,1,142.92,144.13Z"/><path class="cls-1" d="M130.7,101.21a2,2,0,0,1,0,4H94.33a2,2,0,0,1,0-4Z"/><path class="cls-1" d="M136.75,126.44a2,2,0,0,1,0,4H94.33a2,2,0,1,1,0-4Z"/><path class="cls-1" d="M136.75,82.4a2,2,0,0,1,0,4H94.33a2,2,0,1,1,0-4Z"/><path class="cls-1" d="M130.7,145.25a2,2,0,0,1,0,4H94.33a2,2,0,0,1,0-4Z"/><path class="cls-1" d="M144.81,150.61a2,2,0,0,1,0,4H94.33a2,2,0,0,1,0-4Z"/><path class="cls-2" d="M130.7,149.28a2,2,0,0,0,0-4H94.33a2,2,0,0,0,0,4Zm0-44a2,2,0,0,0,0-4H94.33a2,2,0,0,0,0,4ZM94.33,150.61a2,2,0,0,0,0,4h50.48a2,2,0,0,0,0-4Zm0-44a2,2,0,0,0,0,4h50.48a2,2,0,0,0,0-4Zm-2-51.39h71.82a16.37,16.37,0,0,0-3.32,9.89v0h0V182.77h0v0a9.87,9.87,0,1,1-19.73,0V167.53a3.34,3.34,0,0,0-3.33-3.33H82.46V65A9.87,9.87,0,0,1,92.32,55.18Zm54.5,21.17a2,2,0,0,0-2-2H94.33a2,2,0,0,0,0,4h50.48A2,2,0,0,0,146.82,76.35Zm0,44a2,2,0,0,0-2-2H94.33a2,2,0,0,0,0,4h50.48A2,2,0,0,0,146.82,120.39Zm-4-27.92a2,2,0,0,0-2-2H94.33a2,2,0,0,0,0,4h46.44A2,2,0,0,0,142.79,92.47Zm0,44a2,2,0,0,0-2-2H94.33a2,2,0,0,0,0,4h46.44A2,2,0,0,0,142.79,136.51Zm-4-52.1a2,2,0,0,0-2-2H94.33a2,2,0,1,0,0,4h42.42A2,2,0,0,0,138.76,84.41Zm0,44a2,2,0,0,0-2-2H94.33a2,2,0,1,0,0,4h42.42A2,2,0,0,0,138.76,128.45Z"/><path class="cls-1" d="M140.77,90.46a2,2,0,1,1,0,4H94.33a2,2,0,0,1,0-4Z"/><path class="cls-1" d="M140.77,134.5a2,2,0,1,1,0,4H94.33a2,2,0,0,1,0-4Z"/><path class="cls-1" d="M144.81,106.57a2,2,0,0,1,0,4H94.33a2,2,0,0,1,0-4Z"/><path class="cls-1" d="M144.81,74.34a2,2,0,0,1,0,4H94.33a2,2,0,0,1,0-4Z"/><path class="cls-1" d="M144.81,118.38a2,2,0,0,1,0,4H94.33a2,2,0,0,1,0-4Z"/><path class="cls-2" d="M137.73,192.66H66.36a3,3,0,0,0-.42,0,9.88,9.88,0,0,1-9.86-9.89V170.85h78.35v11.9s0,.06,0,.08A16.46,16.46,0,0,0,137.73,192.66Z"/><path class="cls-2" d="M187.19,65.06V85H167.46V65.17s0-.06,0-.1a9.86,9.86,0,0,1,19.72,0Z"/><path class="cls-1" d="M193.84,65.09V88.37a3.32,3.32,0,0,1-3.32,3.32H167.46v91.1A16.53,16.53,0,0,1,151,199.3h-85a3.71,3.71,0,0,1-.47,0,16.54,16.54,0,0,1-16-16.51V167.53a3.33,3.33,0,0,1,3.33-3.33H75.81V65.06A16.54,16.54,0,0,1,92.32,48.53h85a2.63,2.63,0,0,1,.49.06,16.51,16.51,0,0,1,16,16.48Zm-6.65,20v-20a9.86,9.86,0,0,0-19.72,0s0,.06,0,.1V85ZM164.14,55.18H92.32A9.87,9.87,0,0,0,82.46,65V164.2h55.29a3.34,3.34,0,0,1,3.33,3.33v15.26a9.87,9.87,0,1,0,19.73,0v0h0V65.09h0v0A16.37,16.37,0,0,1,164.14,55.18ZM66.36,192.66h71.37a16.46,16.46,0,0,1-3.29-9.83s0-.05,0-.08v-11.9H56.08v11.89a9.88,9.88,0,0,0,9.86,9.89A3,3,0,0,1,66.36,192.66Z"/></g></g></svg>