<svg xmlns="http://www.w3.org/2000/svg" viewBox="0 0 190.15 198.52"><defs><style>.cls-1{fill:#fff;}.cls-2{fill:#041235;}</style></defs><g id="Capa_2" data-name="Capa 2"><g id="ELEMENTOS"><path class="cls-1" d="M116.27,189.77h-94a3.19,3.19,0,0,0-.54,0,13,13,0,0,1-13-13V161.07H111.91v15.66s0,.07,0,.1A21.66,21.66,0,0,0,116.27,189.77Z"/><path class="cls-1" d="M181.39,21.77v26.3h-26V21.9s0-.08,0-.13a13,13,0,0,1,26,0Z"/><path class="cls-1" d="M56.48,8.76H151a21.58,21.58,0,0,0-4.37,13,0,0,0,0,0,0,0h0v155h0v0a13,13,0,1,1-26,0s0-.05,0-.08v-20a4.38,4.38,0,0,0-4.38-4.38H43.49V21.74A13,13,0,0,1,56.48,8.76Zm71.75,44.41a2.64,2.64,0,0,0-2.65-2.65H59.12a2.65,2.65,0,0,0,0,5.3h66.46A2.64,2.64,0,0,0,128.23,53.17Zm0,45a2.64,2.64,0,0,0-2.65-2.65H59.12a2.65,2.65,0,0,0,0,5.3h66.46A2.64,2.64,0,0,0,128.23,98.17Zm0,42.45a2.65,2.65,0,0,0-2.65-2.66H59.12a2.66,2.66,0,0,0,0,5.31h66.46A2.65,2.65,0,0,0,128.23,140.62Zm-5.3-103.23a2.66,2.66,0,0,0-2.66-2.65H59.12a2.66,2.66,0,0,0,0,5.31h61.15A2.66,2.66,0,0,0,122.93,37.39Zm0,37a2.66,2.66,0,0,0-2.66-2.65H59.12a2.66,2.66,0,0,0,0,5.31h61.15A2.66,2.66,0,0,0,122.93,74.39Zm0,45a2.66,2.66,0,0,0-2.66-2.65H59.12a2.66,2.66,0,0,0,0,5.31h61.15A2.66,2.66,0,0,0,122.93,119.39Zm-5.31-92.61A2.65,2.65,0,0,0,115,24.13H59.12a2.65,2.65,0,1,0,0,5.3H115A2.65,2.65,0,0,0,117.62,26.78Zm0,37A2.65,2.65,0,0,0,115,61.13H59.12a2.65,2.65,0,1,0,0,5.3H115A2.65,2.65,0,0,0,117.62,63.78Zm0,45a2.65,2.65,0,0,0-2.65-2.65H59.12a2.65,2.65,0,1,0,0,5.3H115A2.65,2.65,0,0,0,117.62,108.78Zm-8-23.77A2.66,2.66,0,0,0,107,82.35H59.12a2.66,2.66,0,0,0,0,5.31H107A2.65,2.65,0,0,0,109.66,85Zm0,45a2.66,2.66,0,0,0-2.65-2.66H59.12a2.66,2.66,0,0,0,0,5.31H107A2.65,2.65,0,0,0,109.66,130Z"/><path class="cls-2" d="M190.15,21.8V52.44a4.38,4.38,0,0,1-4.38,4.38H155.41v120a21.76,21.76,0,0,1-21.74,21.74H21.74a4.08,4.08,0,0,1-.61,0A21.76,21.76,0,0,1,0,176.75V156.69a4.38,4.38,0,0,1,4.37-4.38H34.73V21.77A21.78,21.78,0,0,1,56.48,0H168.41a3.39,3.39,0,0,1,.64.07,21.74,21.74,0,0,1,21.1,21.7Zm-8.76,26.27V21.77h0a13,13,0,0,0-26,0c0,.05,0,.09,0,.13V48.07ZM151,8.76H56.48a13,13,0,0,0-13,13V152.31h72.8a4.38,4.38,0,0,1,4.38,4.38v20s0,.05,0,.08a13,13,0,1,0,26,0v0h0v-155h0a0,0,0,0,1,0,0A21.58,21.58,0,0,1,151,8.76Zm-128.75,181h94a21.66,21.66,0,0,1-4.35-12.94s0-.07,0-.1V161.07H8.75v15.65a13,13,0,0,0,13,13A3.19,3.19,0,0,1,22.28,189.77Z"/><path class="cls-2" d="M125.58,50.52a2.65,2.65,0,0,1,0,5.3H59.12a2.65,2.65,0,0,1,0-5.3Z"/><path class="cls-2" d="M125.58,95.52a2.65,2.65,0,0,1,0,5.3H59.12a2.65,2.65,0,0,1,0-5.3Z"/><path class="cls-2" d="M125.58,138a2.66,2.66,0,0,1,0,5.31H59.12a2.66,2.66,0,0,1,0-5.31Z"/><path class="cls-2" d="M120.27,34.74a2.66,2.66,0,1,1,0,5.31H59.12a2.66,2.66,0,0,1,0-5.31Z"/><path class="cls-2" d="M120.27,71.74a2.66,2.66,0,1,1,0,5.31H59.12a2.66,2.66,0,0,1,0-5.31Z"/><path class="cls-2" d="M120.27,116.74a2.66,2.66,0,1,1,0,5.31H59.12a2.66,2.66,0,0,1,0-5.31Z"/><path class="cls-2" d="M115,24.13a2.65,2.65,0,1,1,0,5.3H59.12a2.65,2.65,0,1,1,0-5.3Z"/><path class="cls-2" d="M115,61.13a2.65,2.65,0,1,1,0,5.3H59.12a2.65,2.65,0,1,1,0-5.3Z"/><path class="cls-2" d="M115,106.13a2.65,2.65,0,0,1,0,5.3H59.12a2.65,2.65,0,1,1,0-5.3Z"/><path class="cls-2" d="M107,82.35a2.66,2.66,0,0,1,0,5.31H59.12a2.66,2.66,0,0,1,0-5.31Z"/><path class="cls-2" d="M107,127.35a2.66,2.66,0,0,1,0,5.31H59.12a2.66,2.66,0,0,1,0-5.31Z"/></g></g></svg>