<svg xmlns="http://www.w3.org/2000/svg" viewBox="0 0 190.15 198.52"><defs><style>.cls-1{fill:#fff;}.cls-2{fill:#041235;}</style></defs><g id="Capa_2" data-name="Capa 2"><g id="ELEMENTOS"><path class="cls-1" d="M116.27,189.77h-94a3.39,3.39,0,0,0-.55,0,13,13,0,0,1-13-13V161.07H111.91v15.66s0,.07,0,.1A21.59,21.59,0,0,0,116.27,189.77Z"/><path class="cls-1" d="M181.39,21.77v26.3h-26V21.9s0-.08,0-.13a13,13,0,0,1,26,0Z"/><path class="cls-1" d="M56.48,8.76H151a21.58,21.58,0,0,0-4.37,13v0h0v155a13,13,0,0,1-26,0s0-.05,0-.08v-20a4.38,4.38,0,0,0-4.38-4.38H43.49V21.74A13,13,0,0,1,56.48,8.76Zm66.14,25.75a4.5,4.5,0,0,0-6.36-6.36L83.5,60.9,72.62,50a4.5,4.5,0,1,0-6.36,6.37L83.5,73.63ZM115.12,96a4.5,4.5,0,0,0-6.36-6.36L94.44,103.94,80.12,89.62A4.5,4.5,0,0,0,73.76,96L88.08,110.3,73.76,124.62A4.5,4.5,0,1,0,80.12,131l14.32-14.32L108.76,131a4.5,4.5,0,0,0,6.36-6.36L100.8,110.3Z"/><path class="cls-2" d="M190.15,21.8V52.44a4.38,4.38,0,0,1-4.38,4.38H155.41v120a21.76,21.76,0,0,1-21.74,21.74H21.74a4.08,4.08,0,0,1-.61,0A21.76,21.76,0,0,1,0,176.75V156.69a4.38,4.38,0,0,1,4.38-4.38H34.73V21.77A21.78,21.78,0,0,1,56.48,0H168.41a3.59,3.59,0,0,1,.65.07,21.74,21.74,0,0,1,21.09,21.7Zm-8.76,26.27V21.77h0a13,13,0,0,0-26,0c0,.05,0,.09,0,.13V48.07ZM151,8.76H56.48a13,13,0,0,0-13,13V152.31h72.8a4.38,4.38,0,0,1,4.38,4.38v20s0,.05,0,.08a13,13,0,0,0,26,0v-155h0v0A21.58,21.58,0,0,1,151,8.76Zm-128.75,181h94a21.59,21.59,0,0,1-4.34-12.94s0-.07,0-.1V161.07H8.75v15.65a13,13,0,0,0,13,13A3.39,3.39,0,0,1,22.29,189.77Z"/><path class="cls-2" d="M122.62,28.15a4.49,4.49,0,0,1,0,6.36L83.5,73.63,66.26,56.39A4.5,4.5,0,1,1,72.62,50L83.5,60.9l32.76-32.75A4.49,4.49,0,0,1,122.62,28.15Z"/><path class="cls-2" d="M115.12,89.62a4.49,4.49,0,0,1,0,6.36L100.8,110.3l14.32,14.32a4.5,4.5,0,1,1-6.36,6.36L94.44,116.66,80.12,131a4.5,4.5,0,1,1-6.36-6.36L88.08,110.3,73.76,96a4.5,4.5,0,0,1,6.36-6.36l14.32,14.32,14.32-14.32A4.49,4.49,0,0,1,115.12,89.62Z"/></g></g></svg>