<svg xmlns="http://www.w3.org/2000/svg" viewBox="0 0 190.15 198.53"><defs><style>.cls-1{fill:#fff;}.cls-2{fill:#023373;}</style></defs><g id="Capa_2" data-name="Capa 2"><g id="ELEMENTOS"><path class="cls-1" d="M116.27,189.77h-94a4.75,4.75,0,0,0-.54,0,13,13,0,0,1-13-13V161.07H111.91v15.66s0,.07,0,.11A21.63,21.63,0,0,0,116.27,189.77Z"/><path class="cls-1" d="M181.39,21.77v26.3h-26V21.91c0-.05,0-.09,0-.13a13,13,0,0,1,26,0Z"/><path class="cls-1" d="M56.48,8.76H151a21.59,21.59,0,0,0-4.37,13,0,0,0,0,1,0,0h0v155h0s0,0,0,0a13,13,0,1,1-26,0s0-.05,0-.08v-20a4.38,4.38,0,0,0-4.38-4.38H43.49V21.75A13,13,0,0,1,56.48,8.76Zm71.75,67.41a2.65,2.65,0,0,0-2.65-2.65H59.12a2.66,2.66,0,0,0,0,5.31h66.46A2.65,2.65,0,0,0,128.23,76.17Zm0,22a2.65,2.65,0,0,0-2.65-2.65H59.12a2.66,2.66,0,0,0,0,5.31h66.46A2.65,2.65,0,0,0,128.23,98.17Zm0,42.45a2.65,2.65,0,0,0-2.65-2.65H59.12a2.65,2.65,0,1,0,0,5.3h66.46A2.64,2.64,0,0,0,128.23,140.62Zm-5.3-21.22a2.66,2.66,0,0,0-2.66-2.66H59.12a2.66,2.66,0,0,0,0,5.31h61.15A2.66,2.66,0,0,0,122.93,119.4Zm-5.31-32.62A2.65,2.65,0,0,0,115,84.13H59.12a2.66,2.66,0,0,0,0,5.31H115A2.66,2.66,0,0,0,117.62,86.78Zm0,22a2.65,2.65,0,0,0-2.65-2.65H59.12a2.66,2.66,0,0,0,0,5.31H115A2.66,2.66,0,0,0,117.62,108.78Zm-1.11-77.61a3.8,3.8,0,1,0-5.37-5.37L83.52,53.42l-9.18-9.17A3.79,3.79,0,1,0,69,49.62L83.52,64.16ZM109.66,130a2.65,2.65,0,0,0-2.65-2.65H59.12a2.65,2.65,0,1,0,0,5.3H107A2.65,2.65,0,0,0,109.66,130Z"/><path class="cls-2" d="M190.15,21.8V52.45a4.38,4.38,0,0,1-4.38,4.37H155.41v120a21.77,21.77,0,0,1-21.74,21.75H21.74a4.07,4.07,0,0,1-.61-.05A21.76,21.76,0,0,1,0,176.75V156.69a4.38,4.38,0,0,1,4.37-4.38H34.73V21.77A21.78,21.78,0,0,1,56.48,0H168.41a4.48,4.48,0,0,1,.64.07,21.75,21.75,0,0,1,21.1,21.71Zm-8.76,26.27V21.77h0a13,13,0,0,0-26,0s0,.08,0,.13V48.07ZM151,8.76H56.48a13,13,0,0,0-13,13V152.31h72.8a4.38,4.38,0,0,1,4.38,4.38v20s0,.05,0,.08a13,13,0,1,0,26,0s0,0,0,0h0V21.8h0a0,0,0,0,0,0,0A21.59,21.59,0,0,1,151,8.76Zm-128.75,181h94a21.63,21.63,0,0,1-4.35-12.93s0-.07,0-.11V161.07H8.75v15.65a13,13,0,0,0,13,13A4.75,4.75,0,0,1,22.28,189.77Z"/><path class="cls-2" d="M125.58,73.52a2.66,2.66,0,0,1,0,5.31H59.12a2.66,2.66,0,0,1,0-5.31Z"/><path class="cls-2" d="M125.58,95.52a2.66,2.66,0,0,1,0,5.31H59.12a2.66,2.66,0,0,1,0-5.31Z"/><path class="cls-2" d="M125.58,138a2.65,2.65,0,0,1,0,5.3H59.12a2.65,2.65,0,1,1,0-5.3Z"/><path class="cls-2" d="M120.27,116.74a2.66,2.66,0,1,1,0,5.31H59.12a2.66,2.66,0,0,1,0-5.31Z"/><path class="cls-2" d="M115,84.13a2.66,2.66,0,0,1,0,5.31H59.12a2.66,2.66,0,0,1,0-5.31Z"/><path class="cls-2" d="M115,106.13a2.66,2.66,0,0,1,0,5.31H59.12a2.66,2.66,0,0,1,0-5.31Z"/><path class="cls-2" d="M116.51,25.8a3.8,3.8,0,0,1,0,5.37l-33,33L69,49.62a3.79,3.79,0,1,1,5.36-5.37l9.18,9.17L111.14,25.8A3.8,3.8,0,0,1,116.51,25.8Z"/><path class="cls-2" d="M107,127.36a2.65,2.65,0,1,1,0,5.3H59.12a2.65,2.65,0,1,1,0-5.3Z"/></g></g></svg>