<?xml version="1.0" encoding="UTF-8" standalone="no"?>
<svg
   xmlns:dc="http://purl.org/dc/elements/1.1/"
   xmlns:cc="http://creativecommons.org/ns#"
   xmlns:rdf="http://www.w3.org/1999/02/22-rdf-syntax-ns#"
   xmlns:svg="http://www.w3.org/2000/svg"
   xmlns="http://www.w3.org/2000/svg"
   id="svg8"
   version="1.1"
   viewBox="0 0 145 130"
   height="130mm"
   width="145mm">
  <defs
     id="defs2">
    <clipPath
       clipPathUnits="userSpaceOnUse"
       id="clipPath3733">
      <path
         d="M 0,595.28 H 841.89 V 0 H 0 Z"
         id="path3731" />
    </clipPath>
  </defs>
  <metadata
     id="metadata5">
    <rdf:RDF>
      <cc:Work
         rdf:about="">
        <dc:format>image/svg+xml</dc:format>
        <dc:type
           rdf:resource="http://purl.org/dc/dcmitype/StillImage" />
        <dc:title></dc:title>
      </cc:Work>
    </rdf:RDF>
  </metadata>
  <g
     transform="translate(0,-167)"
     id="layer1">
    <g
       id="g3721"
       transform="matrix(0.35277777,0,0,-0.35277777,-37.436953,204.0718)">
      <g
         transform="translate(1.4173246,1.5734071)"
         id="g3946">
        <g
           transform="translate(127.09499,-184.41701)"
           id="g3723">
          <path
             id="path3725"
             style="fill:#010101;fill-opacity:1;fill-rule:nonzero;stroke:none"
             d="M 0,0 H 366.24 V -64.813 H 0 Z" />
        </g>
        <g
           id="g3729"
           clip-path="url(#clipPath3733)"
           transform="translate(-110.90551,-378.75001)">
          <g
             id="g3735"
             transform="translate(269.3149,184.5889)">
            <path
               d="m 0,0 v -31.196 c 0,0 0.126,-5.305 -5.557,-6.063 -5.684,-0.758 -7.831,3.537 -7.831,3.537 l -6.188,-5.936 c 0,0 7.199,-8.589 16.04,-6.316 11.367,1.264 12.63,13.01 12.63,13.01 V 0 Z"
               style="fill:#ffffff;fill-opacity:1;fill-rule:nonzero;stroke:none"
               id="path3737" />
          </g>
          <g
             id="g3739"
             transform="translate(303.7954,184.5889)">
            <path
               d="m 0,0 h 9.094 v -26.775 c 0,0 -1.138,-10.759 11.114,-11 12.251,-0.242 11.494,11 11.494,11 V 0 h 8.967 v -26.775 c 0,0 1.39,-19.712 -20.335,-19.581 C -0.253,-46.353 0,-27.407 0,-27.407 Z"
               style="fill:#ffffff;fill-opacity:1;fill-rule:nonzero;stroke:none"
               id="path3741" />
          </g>
          <g
             id="g3743"
             transform="translate(303.7954,184.5889)">
            <path
               d="m 0,0 h 9.094 v -26.775 c 0,0 -1.138,-10.759 11.114,-11 12.251,-0.242 11.494,11 11.494,11 V 0 h 8.967 v -26.775 c 0,0 1.39,-19.712 -20.335,-19.581 C -0.253,-46.353 0,-27.407 0,-27.407 Z"
               style="fill:none;stroke:#000000;stroke-width:1;stroke-linecap:butt;stroke-linejoin:miter;stroke-miterlimit:10;stroke-dasharray:none;stroke-opacity:1"
               id="path3745" />
          </g>
          <g
             id="g3747"
             transform="translate(405.2144,170.5693)">
            <path
               d="m 0,0 6.062,6.188 c 0,0 -7.704,12.757 -26.27,7.832 -17.429,-5.431 -16.924,-22.892 -16.924,-22.892 0,0 -2.021,-19.672 21.597,-23.466 16.925,-0.879 21.597,9.225 21.597,9.225 V -7.83 H -11.62 v -7.452 h 9.221 l 0.126,-4.294 c 0,0 -4.673,-5.179 -13.262,-3.789 -11.746,2.273 -13.009,13.721 -13.009,13.721 0,0 -1.01,13.181 13.009,15.706 C -5.178,8.083 0,0 0,0"
               style="fill:#ffffff;fill-opacity:1;fill-rule:nonzero;stroke:none"
               id="path3749" />
          </g>
          <g
             id="g3751"
             transform="translate(405.2144,170.5693)">
            <path
               d="m 0,0 6.062,6.188 c 0,0 -7.704,12.757 -26.27,7.832 -17.429,-5.431 -16.924,-22.892 -16.924,-22.892 0,0 -2.021,-19.672 21.597,-23.466 16.925,-0.879 21.597,9.225 21.597,9.225 V -7.83 H -11.62 v -7.452 h 9.221 l 0.126,-4.294 c 0,0 -4.673,-5.179 -13.262,-3.789 -11.746,2.273 -13.009,13.721 -13.009,13.721 0,0 -1.01,13.181 13.009,15.706 C -5.178,8.083 0,0 0,0 Z"
               style="fill:none;stroke:#000000;stroke-width:1;stroke-linecap:butt;stroke-linejoin:miter;stroke-miterlimit:10;stroke-dasharray:none;stroke-opacity:1"
               id="path3753" />
          </g>
          <g
             id="g3755"
             transform="translate(472.2363,170.623)">
            <path
               d="m 0,0 6.062,6.188 c 0,0 -7.705,12.757 -26.27,7.832 -17.429,-5.431 -16.925,-22.892 -16.925,-22.892 0,0 -2.019,-19.672 21.598,-23.466 16.924,-0.879 21.597,9.225 21.597,9.225 V -7.83 h -17.681 v -7.452 H -2.4 l 0.127,-4.294 c 0,0 -4.674,-5.179 -13.262,-3.789 -11.746,2.273 -13.009,13.721 -13.009,13.721 0,0 -1.011,13.181 13.009,15.706 C -5.178,8.083 0,0 0,0"
               style="fill:#ffffff;fill-opacity:1;fill-rule:nonzero;stroke:none"
               id="path3757" />
          </g>
          <g
             id="g3759"
             transform="translate(472.2363,170.623)">
            <path
               d="m 0,0 6.062,6.188 c 0,0 -7.705,12.757 -26.27,7.832 -17.429,-5.431 -16.925,-22.892 -16.925,-22.892 0,0 -2.019,-19.672 21.598,-23.466 16.924,-0.879 21.597,9.225 21.597,9.225 V -7.83 h -17.681 v -7.452 H -2.4 l 0.127,-4.294 c 0,0 -4.674,-5.179 -13.262,-3.789 -11.746,2.273 -13.009,13.721 -13.009,13.721 0,0 -1.011,13.181 13.009,15.706 C -5.178,8.083 0,0 0,0 Z"
               style="fill:none;stroke:#000000;stroke-width:1;stroke-linecap:butt;stroke-linejoin:miter;stroke-miterlimit:10;stroke-dasharray:none;stroke-opacity:1"
               id="path3761" />
          </g>
          <g
             id="g3763"
             transform="translate(503.0977,184.5889)">
            <path
               d="m 0,0 v -45.216 h 30.06 v 7.704 H 8.715 L 8.589,-25.134 H 30.06 v 7.073 H 8.715 L 8.589,-7.452 H 30.06 V 0 Z"
               style="fill:#ffffff;fill-opacity:1;fill-rule:nonzero;stroke:none"
               id="path3765" />
          </g>
          <g
             id="g3767"
             transform="translate(503.0977,184.5889)">
            <path
               d="m 0,0 v -45.216 h 30.06 v 7.704 H 8.715 L 8.589,-25.134 H 30.06 v 7.073 H 8.715 L 8.589,-7.452 H 30.06 V 0 Z"
               style="fill:none;stroke:#000000;stroke-width:1;stroke-linecap:butt;stroke-linejoin:miter;stroke-miterlimit:10;stroke-dasharray:none;stroke-opacity:1"
               id="path3769" />
          </g>
          <g
             id="g3771"
             transform="translate(566.501,139.373)">
            <path
               d="m 0,0 0.126,17.809 h 4.926 c 0,0 5.304,0.504 7.452,-7.074 C 14.526,4.05 15.914,0 15.914,0 h 10.104 c 0,0 -4.926,14.146 -7.452,17.177 -2.525,3.031 -3.537,3.158 -3.537,3.158 0,0 8.842,1.768 8.084,13.135 C 22.355,44.837 10.609,45.216 10.609,45.216 H -8.589 V 0 Z"
               style="fill:#ffffff;fill-opacity:1;fill-rule:nonzero;stroke:none"
               id="path3773" />
          </g>
          <g
             id="g3775"
             transform="translate(566.501,139.373)">
            <path
               d="m 0,0 0.126,17.809 h 4.926 c 0,0 5.304,0.504 7.452,-7.074 C 14.526,4.05 15.914,0 15.914,0 h 10.104 c 0,0 -4.926,14.146 -7.452,17.177 -2.525,3.031 -3.537,3.158 -3.537,3.158 0,0 8.842,1.768 8.084,13.135 C 22.355,44.837 10.609,45.216 10.609,45.216 H -8.589 V 0 Z"
               style="fill:none;stroke:#000000;stroke-width:1;stroke-linecap:butt;stroke-linejoin:miter;stroke-miterlimit:10;stroke-dasharray:none;stroke-opacity:1"
               id="path3777" />
          </g>
          <g
             id="g3779"
             transform="translate(566.7539,178.4004)">
            <path
               d="m 0,0 v -14.398 c 0,0 14.524,-1.642 14.271,7.199 C 14.019,1.642 0,0 0,0"
               style="fill:#010101;fill-opacity:1;fill-rule:nonzero;stroke:none"
               id="path3781" />
          </g>
          <g
             id="g3783"
             transform="translate(359.2456,338.3779)">
            <path
               d="m 0,0 c 0,0 5.347,-5.547 5.649,-5.447 0.302,0.101 2.421,2.018 2.421,2.018 l 55.782,-53.563 c 0,0 17.15,14.022 49.527,15.03 1.51,-1.11 -16.562,11.508 -13.516,9.078 -9.687,6.96 -15.028,19.569 -15.333,21.587 -1.92,3.53 -6.455,2.824 -6.455,2.824 0,0 -18.131,-3.479 -44.068,0.783 C 8.07,-3.429 0,0 0,0"
               style="fill:#053387;fill-opacity:1;fill-rule:nonzero;stroke:none"
               id="path3785" />
          </g>
          <g
             id="g3787"
             transform="translate(359.2456,338.3779)">
            <path
               d="m 0,0 c 0,0 5.347,-5.547 5.649,-5.447 0.302,0.101 2.421,2.018 2.421,2.018 l 55.782,-53.563 c 0,0 17.15,14.022 49.527,15.03 1.51,-1.11 -16.562,11.508 -13.516,9.078 -9.687,6.96 -15.028,19.569 -15.333,21.587 -1.92,3.53 -6.455,2.824 -6.455,2.824 0,0 -18.131,-3.479 -44.068,0.783 C 8.07,-3.429 0,0 0,0 Z"
               style="fill:none;stroke:#053387;stroke-width:1;stroke-linecap:butt;stroke-linejoin:miter;stroke-miterlimit:10;stroke-dasharray:none;stroke-opacity:1"
               id="path3789" />
          </g>
          <g
             id="g3791"
             transform="translate(406.2163,207.2559)">
            <path
               d="m 0,0 h -168.216 v 233.099 l 82.924,-80.484 2.277,2.531 6.58,-6.074 c 0,0 -1.455,-9.904 13.414,-12.908 4.216,-4.196 16.583,-16.265 16.583,-16.265 l -1.903,-1.958 58.105,-56.693 c 0,0 1.294,-4.782 0,-6.327 C 6.16,49.651 7.649,38.104 7.649,38.104 c 0,0 0.792,-14.531 7.027,-20.303 6.235,-5.773 5.319,-7.424 5.319,-7.424 0,0 -1.86,-2.491 -10.231,-4.303 C 1.392,4.263 0,0 0,0"
               style="fill:#053387;fill-opacity:1;fill-rule:nonzero;stroke:none"
               id="path3793" />
          </g>
          <g
             id="g3795"
             transform="translate(406.2163,207.2559)">
            <path
               d="m 0,0 h -168.216 v 233.099 l 82.924,-80.484 2.277,2.531 6.58,-6.074 c 0,0 -1.455,-9.904 13.414,-12.908 4.216,-4.196 16.583,-16.265 16.583,-16.265 l -1.903,-1.958 58.105,-56.693 c 0,0 1.294,-4.782 0,-6.327 C 6.16,49.651 7.649,38.104 7.649,38.104 c 0,0 0.792,-14.531 7.027,-20.303 6.235,-5.773 5.319,-7.424 5.319,-7.424 0,0 -1.86,-2.491 -10.231,-4.303 C 1.392,4.263 0,0 0,0 Z"
               style="fill:none;stroke:#053387;stroke-width:1;stroke-linecap:butt;stroke-linejoin:miter;stroke-miterlimit:10;stroke-dasharray:none;stroke-opacity:1"
               id="path3797" />
          </g>
          <g
             id="g3799"
             transform="translate(243.769,453.8511)">
            <path
               d="m 0,0 c 0,0 4.237,8.643 20.38,12.149 h 313.367 c 0,0 23.733,-3.635 26.724,-25.645 v -185.505 c 0,0 -8.271,6.068 -19.531,8.63 -1.834,0.772 -7.835,1.276 -39.717,34.16 -5.024,10.143 -9.914,12.242 -9.914,12.242 0,0 -7.352,4.191 -18.041,6.474 -10.688,2.284 -16.725,11.381 -16.725,11.381 0,0 -10.224,12.18 -7.671,20.619 26.498,-10.45 39.56,-11.748 39.56,-11.748 0,0 3.446,-1.132 11.407,0.906 7.961,2.037 10.891,0.864 10.891,0.864 0,0 7.12,-0.928 11.622,-9.652 8.72,-1.81 8.997,0.21 8.997,0.21 0,0 0.744,0.412 0.935,2.119 -0.183,3.745 0.744,6.033 0.744,6.033 0,0 1.722,0.544 4.28,-1.739 5.224,-2.905 5.31,-1.858 5.31,-1.858 0,0 2.364,0.213 -4.603,7.74 -2.293,2.395 -4.474,3.386 -6.188,4.532 -2.706,1.81 -4.384,3.052 -4.554,3.553 -0.562,1.654 -0.141,2.14 0.169,4.389 1.005,1.736 0.96,5.25 -2.741,4.568 -2.649,-9.866 -13.971,-9.677 -13.971,-9.677 0,0 -6.034,-0.098 -9.231,2.551 -3.198,2.65 -11.967,3.655 -18.454,3.837 -8.496,1.736 -25.762,10.871 -25.762,10.871 l -12.762,5.455 c 0,0 -7.519,2.949 -11.995,2.127 -4.477,-0.821 -9.31,-6.139 -9.31,-6.139 0,0 -0.638,3.647 1.868,7.451 2.507,3.805 2.275,9.31 2.45,10.531 0.332,2.318 -3.617,15.675 -16.305,11.508 -12.688,-4.166 -16.543,-13.186 -16.543,-13.186 0,0 -4.197,-8.056 -1.679,-15.825 1.331,-6.946 2.519,-7.768 2.519,-7.768 0,0 0.549,-1.005 5.634,-3.021 1.674,-2.369 -1.249,-6.388 -1.249,-6.388 0,0 -6.918,1.203 -13.617,-0.565 -6.698,-1.767 -17.263,-4.556 -17.263,-4.556 0,0 -23.789,-2.47 -34.046,-0.959 -10.257,1.512 -23.736,8.392 -23.736,8.392 0,0 -10.639,9.29 -17.582,6.731 -4.476,4.385 -8.587,8.405 -8.587,8.405 l 2.193,2.101 z"
               style="fill:#e3bf2a;fill-opacity:1;fill-rule:nonzero;stroke:none"
               id="path3801" />
          </g>
          <g
             id="g3803"
             transform="translate(243.769,453.8511)">
            <path
               d="m 0,0 c 0,0 4.237,8.643 20.38,12.149 h 313.367 c 0,0 23.733,-3.635 26.724,-25.645 v -185.505 c 0,0 -8.271,6.068 -19.531,8.63 -1.834,0.772 -7.835,1.276 -39.717,34.16 -5.024,10.143 -9.914,12.242 -9.914,12.242 0,0 -7.352,4.191 -18.041,6.474 -10.688,2.284 -16.725,11.381 -16.725,11.381 0,0 -10.224,12.18 -7.671,20.619 26.498,-10.45 39.56,-11.748 39.56,-11.748 0,0 3.446,-1.132 11.407,0.906 7.961,2.037 10.891,0.864 10.891,0.864 0,0 7.12,-0.928 11.622,-9.652 8.72,-1.81 8.997,0.21 8.997,0.21 0,0 0.744,0.412 0.935,2.119 -0.183,3.745 0.744,6.033 0.744,6.033 0,0 1.722,0.544 4.28,-1.739 5.224,-2.905 5.31,-1.858 5.31,-1.858 0,0 2.364,0.213 -4.603,7.74 -2.293,2.395 -4.474,3.386 -6.188,4.532 -2.706,1.81 -4.384,3.052 -4.554,3.553 -0.562,1.654 -0.141,2.14 0.169,4.389 1.005,1.736 0.96,5.25 -2.741,4.568 -2.649,-9.866 -13.971,-9.677 -13.971,-9.677 0,0 -6.034,-0.098 -9.231,2.551 -3.198,2.65 -11.967,3.655 -18.454,3.837 -8.496,1.736 -25.762,10.871 -25.762,10.871 l -12.762,5.455 c 0,0 -7.519,2.949 -11.995,2.127 -4.477,-0.821 -9.31,-6.139 -9.31,-6.139 0,0 -0.638,3.647 1.868,7.451 2.507,3.805 2.275,9.31 2.45,10.531 0.332,2.318 -3.617,15.675 -16.305,11.508 -12.688,-4.166 -16.543,-13.186 -16.543,-13.186 0,0 -4.197,-8.056 -1.679,-15.825 1.331,-6.946 2.519,-7.768 2.519,-7.768 0,0 0.549,-1.005 5.634,-3.021 1.674,-2.369 -1.249,-6.388 -1.249,-6.388 0,0 -6.918,1.203 -13.617,-0.565 -6.698,-1.767 -17.263,-4.556 -17.263,-4.556 0,0 -23.789,-2.47 -34.046,-0.959 -10.257,1.512 -23.736,8.392 -23.736,8.392 0,0 -10.639,9.29 -17.582,6.731 -4.476,4.385 -8.587,8.405 -8.587,8.405 l 2.193,2.101 z"
               style="fill:none;stroke:#e3bf2a;stroke-width:1;stroke-linecap:butt;stroke-linejoin:miter;stroke-miterlimit:10;stroke-dasharray:none;stroke-opacity:1"
               id="path3805" />
          </g>
          <g
             id="g3807"
             transform="translate(430.4727,207.2559)">
            <path
               d="m 0,0 h 173.768 v 21.269 c 0,0 -10.99,3.767 -16.428,7.253 -5.439,3.487 -11.717,14.925 -11.717,14.925 0,0 -17.436,5.022 -24.131,7.393 -6.695,2.371 -17.156,9.485 -17.156,9.485 l -19.389,7.95 c 0,0 -10.74,-7.671 -23.433,-10.182 C 48.82,55.582 35.989,61.567 33.059,61.44 30.128,61.313 11.856,60.743 9.206,58.232 12.833,54.885 32.082,35.775 32.082,35.775 c 0,0 3.759,-3.634 0.031,-8.961 -6.016,-4.75 -9.934,-0.245 -9.934,-0.245 L 5.161,42.61 c 0,0 -4.418,-14.129 -2.371,-19.109 C 5.169,11.988 12.435,9.569 14.228,3.415 14.691,0 0,0 0,0"
               style="fill:#a01028;fill-opacity:1;fill-rule:nonzero;stroke:none"
               id="path3809" />
          </g>
          <g
             id="g3811"
             transform="translate(430.4727,207.2559)">
            <path
               d="m 0,0 h 173.768 v 21.269 c 0,0 -10.99,3.767 -16.428,7.253 -5.439,3.487 -11.717,14.925 -11.717,14.925 0,0 -17.436,5.022 -24.131,7.393 -6.695,2.371 -17.156,9.485 -17.156,9.485 l -19.389,7.95 c 0,0 -10.74,-7.671 -23.433,-10.182 C 48.82,55.582 35.989,61.567 33.059,61.44 30.128,61.313 11.856,60.743 9.206,58.232 12.833,54.885 32.082,35.775 32.082,35.775 c 0,0 3.759,-3.634 0.031,-8.961 -6.016,-4.75 -9.934,-0.245 -9.934,-0.245 L 5.161,42.61 c 0,0 -4.418,-14.129 -2.371,-19.109 C 5.169,11.988 12.435,9.569 14.228,3.415 14.691,0 0,0 0,0 Z"
               style="fill:none;stroke:#a01028;stroke-width:1;stroke-linecap:butt;stroke-linejoin:miter;stroke-miterlimit:10;stroke-dasharray:none;stroke-opacity:1"
               id="path3813" />
          </g>
        </g>
      </g>
    </g>
  </g>
</svg>
